<svg width="40" height="40" viewBox="0 0 40 40" fill="none" xmlns="http://www.w3.org/2000/svg">
<rect width="40" height="40" fill="white"/>
<path d="M5.4778 6.74414C5.09499 6.88477 4.61061 7.32227 4.44655 7.68164C4.25905 8.10352 4.25124 8.83789 4.44655 9.25977C4.61842 9.64258 5.1653 10.127 5.5403 10.2285C5.92311 10.3379 34.0794 10.3379 34.4622 10.2285C34.8372 10.127 35.384 9.64258 35.5559 9.25977C35.759 8.81445 35.7512 8.10352 35.5403 7.67383C35.345 7.25977 34.8684 6.8457 34.4622 6.72852C34.0169 6.58789 5.8528 6.60352 5.4778 6.74414Z" fill="#00A4E5"/>
<path d="M5.56363 18.2364C5.07925 18.3848 4.7355 18.6817 4.50113 19.1504C3.96988 20.2207 4.51675 21.4707 5.65738 21.7676C6.173 21.9004 33.6652 21.916 34.2902 21.7832C35.4543 21.5332 36.048 20.2442 35.5011 19.1504C35.2668 18.6739 34.923 18.3848 34.4074 18.2285C33.8761 18.0723 6.07925 18.0723 5.56363 18.2364Z" fill="#00A4E5"/>
<path d="M5.35278 29.8301C4.68872 30.1348 4.2981 30.7676 4.2981 31.5332C4.2981 32.3145 4.82153 33.0488 5.54028 33.2598C5.96997 33.3926 34.0325 33.3926 34.4622 33.2598C35.7434 32.877 36.134 31.1113 35.1497 30.1738C34.5872 29.6426 35.7981 29.6816 19.9856 29.6816C6.20435 29.6816 5.65747 29.6895 5.35278 29.8301Z" fill="#00A4E5"/>
</svg>
